<svg viewBox="0 0 872.71 331.75" xmlns="http://www.w3.org/2000/svg"><path d="m284.25 108.84c0-.13-.03-.25-.07-.37.02.13.04.24.07.37z" fill="#062f27"/><path d="m210.44 283.05c15.37-11.46 52.45-50.62 67.85-66.47 12.44-15.55 40.8-45.2 27.85-66.31-1.36-2.21-3.25-4.59-5.21-6.28-4.95-4.28-8.28-4.92-10.9-6.57-1.43-.9-2.94-1.45-4.35-2.37-.2-.13-.4-.25-.59-.38-30.37-26.84-49.98 8.9-62.34 33.68-8.79 17.62-36.31 89.53-37.54 106.91-.17 2.49.11 5.98.93 8.36.25.73.03.63.62 1.66 5.48 9.61 17.1 2.68 23.68-2.23z" fill="#f9df90"/><g fill="#11202c"><path d="m272.86 170.71c-.09.08.04.9-1.59 1.84-17.54-6.57-14.38-9.22 1.59-1.84z"/><path d="m230.37 204.76c4.15 3.1 10.48 5.39 8 6.97-.53.34-12.08-5.7-8-6.97z"/><path d="m212.76 253.55c.88.67 3.88 3.09 1.5 4.03-.79.31-2.54-1.83-3.09-2.19-8.39-5.5-4.37-6.41 1.59-1.84z"/><path d="m223.72 236.46c-13.56-3.73-10.21-5.52 1.78-2.13-.06.09.39.45-.92 2.07z"/><path d="m253.62 194.33c4.54 3.49 3.82 5.05-.43 2.58-6.7-3.88-7.2-8.45.43-2.58z"/></g><path d="m282.44 137.7c-.59-.96-.8-2.19-.59-3.48v-.1c.61-4.59 1.18-8.93 1.25-13.42.06-6.58-1.03-13.82-3.17-20.92-.41-1.11-.88-2.36-1.48-3.34-.19-.31-.37-.56-.55-.76-.03.27-.1.55-.24.83-.05.09-.1.18-.16.27-.35.49-.93.81-1.53.86-1.06.09-1.68-.52-2.54-1.36-.3-.29-.92-.9-1.16-1.04-.22-.12-.58-.19-.7-.21-5.73-.94-12.86-2.82-16.63-8.96-.06-.1-.13-.21-.19-.32-.05-.07-.09-.14-.14-.22-2.68-4.36-2.28-9.88 1-14.06 3.21-4.08 8.32-5.73 13.02-4.21 1.52-4.77 5.95-8.32 11.48-9.13 5.21-.77 9.95 1.19 12.36 5.12.33.53.61 1.1.85 1.69.07.19.16.41.25.6 1.87-.41 3.56-.4 5.17.03 3.58 1.08 6.24 3.05 7.97 5.88 6.17 10.04-.88 28.3-6.54 42.98-.91 2.36-1.76 4.57-2.5 6.58 2.04-1.86 4.11-3.87 6.25-5.94 10.11-9.78 20.57-19.9 33.24-21.11h.2c2.94 0 5.74 1.48 7.13 3.74.45.74.75 1.54.88 2.39 6.52-1.33 12.8 1.38 16.41 7.26 3.66 5.95 3.27 13.41-.98 19.01-.54.71-1.2 1.3-1.9 1.81.77.77 1.43 1.6 1.96 2.47 2.97 4.83 1.99 10.96-2.44 15.26-3.96 3.85-10.73 5.91-16.94 1.85-4.5-2.76-8.69-7.92-11.08-11.82-.66-1.07-1.23-2.12-1.7-3.12-.04-.08-.07-.16-.1-.25-.08-.26-.14-.57-.17-.86-1.86-.48-5.77-.75-12.08-.09-6.77.85-13.9 2.93-20.58 6-.02 0-.04.02-.06.03-.77.32-1.55.74-2.37 1.19-1.35.73-2.74 1.48-4.3 1.91-.09.03-.19.04-.28.06-1.64.21-3.13-.65-4.33-1.34-.17-.1-.34-.2-.51-.29-.63-.35-1.14-.84-1.51-1.44z" fill="#497c3a"/><path d="m360.06 108.42c2.93 4.77 3.23 11.29-.87 16.68-.58.77-1.43 1.38-2.24 1.93-.52.36-.87.71-.8 1.09l.02.08c.02.07.05.15.1.23.22.36.71.74 1.19 1.17.68.68 1.24 1.39 1.69 2.12 5.58 9.09-6.55 20.8-16.49 14.31-3.81-2.34-7.82-6.9-10.45-11.17-.61-1-1.15-1.98-1.59-2.92-.05-.14-.08-.36-.08-.51.02-.53 1.07.65 1.1.17-.04-.15-.1-.29-.18-.42-1.76-2.86-12.31-1.92-15.27-1.61-7.24.91-14.64 3.15-21.23 6.18-2.17.91-4.2 2.4-6.42 3.01-1.12.14-2.45-.77-3.57-1.39-.33-.18-.57-.43-.75-.72-.36-.59-.43-1.36-.3-2.09.6-4.59 1.2-9.13 1.27-13.78.07-7.23-1.18-14.66-3.28-21.61-.45-1.22-.96-2.6-1.68-3.77-.85-1.38-1.99-2.47-3.66-2.66-1.59.2-.51 2.44-.72 2.86-.15.21-1.72-1.73-2.63-2.17-.37-.19-.78-.3-1.22-.39-5.92-.97-12.07-2.79-15.28-8.01-.06-.1-.13-.21-.19-.32-.05-.07-.09-.15-.14-.22-4.83-7.86 3.06-18 11.63-15.22.56.18 1.36.66 1.84.35.31-.16.52-.79.63-1.23 2.3-8.74 15.71-11.43 20.25-4.03.26.43.5.89.69 1.38.14.37.3.74.49 1.07.39.63.93 1.06 1.8.85 1.49-.37 2.99-.48 4.5-.06 3.18.96 5.36 2.68 6.76 4.96 7.85 12.79-8.88 43.09-11.36 54.66 13.14-10.18 26.87-29.57 43.76-31.18 2.14 0 4.32 1.03 5.38 2.76.48.78.73 1.71.64 2.75 0 .38.03.68.14.86.09.14.22.22.44.22 6.91-2.33 12.97.76 16.08 5.82m3.52-2.19c-3.67-5.98-10.05-9.1-16.69-8.47-.17-.4-.37-.79-.6-1.17-1.76-2.86-5.25-4.72-8.89-4.73-.14 0-.27 0-.41.02-13.23 1.26-24.33 11.87-34.13 21.35 5.67-14.74 12.05-32.43 5.64-42.88-2.01-3.27-5.06-5.54-9.08-6.76-.04-.01-.07-.02-.11-.03-1.43-.39-2.9-.5-4.46-.34-.18-.37-.38-.73-.59-1.08-2.85-4.64-8.38-6.97-14.42-6.08-5.6.83-10.24 4.16-12.43 8.75-4.97-.86-10.07 1.13-13.39 5.36-3.83 4.86-4.28 11.31-1.14 16.41.04.07.09.14.13.21.06.11.13.22.19.32 4.19 6.83 11.83 8.89 18.05 9.91h.04c.21.19.53.5.72.68.96.94 2.15 2.11 4.15 1.94.49-.04.96-.17 1.41-.38.15.38.29.76.43 1.12 2.07 6.89 3.13 13.89 3.07 20.26-.07 4.34-.63 8.62-1.22 13.16v.06c-.29 1.76.02 3.48.86 4.86.55.9 1.33 1.64 2.25 2.16.17.1.33.19.5.28 1.31.76 3.29 1.9 5.62 1.6.19-.02.38-.06.57-.11 1.78-.49 3.35-1.33 4.73-2.08.78-.42 1.51-.81 2.19-1.1.04-.02.08-.04.13-.06 6.47-2.98 13.38-5 19.97-5.83 4.84-.5 8.23-.42 10.14-.17.03.07.06.13.09.2.5 1.07 1.11 2.18 1.81 3.32 2.51 4.09 6.92 9.51 11.76 12.5 7.16 4.64 14.93 2.28 19.46-2.13 5.13-4.99 6.24-12.15 2.76-17.82-.25-.41-.52-.8-.82-1.19.23-.24.44-.5.65-.77 4.76-6.26 5.19-14.64 1.08-21.32z" fill="#12202c"/><path d="m213.18 284.93c19.54-14.49 66.71-63.64 82.21-84.22 13.79-18.69 26.41-42.31 5.3-59.34-.82-.78-1.31-1.49-1.21-2.08.08-.71 1.09-1.26 1.78-1.59 3.98-1.78 7.94-3.72 12.19-4.69 2.7-.51 5.45-1.16 8.18-1.46 3.11-.43 6.55.59 9.61.75.08-.01.23-.03.31-.04.55-.1.81-.52.65-.92-1.41-2.43-7.05-2.23-9.73-2.38-10.64-.06-21.46 3.26-30.89 8.17-2.53 1.39-2.2 2.28.59 3.54 1.11.56 2.37 1.24 3.74 2.16 11.61 7.58 14.36 20.08 9.27 32.87-6.25 15.83-18.83 29.99-29.67 42.65-17.37 17.64-48.24 51.36-66.43 64.53-11.66 8.36-22.98 7.37-22.57-8.77 1.81-20.1 26.12-82.53 35.5-103.13 11.5-24.17 30.96-59.41 59.29-36.99 2.31 1.54 2.88-.07 3.05-1.94.65-5.25 1.17-10.58.84-16.01-.28-4.48-1.16-8.97-2.16-13.56-.83-3.59-3.09-10.4-7.24-10.62-2.44.91 1.59 7.39 2.07 9.21 2.1 5.17 2.76 10.39 3.19 15.9.12 3.1.46 6.86-.2 9.72-.32.66-1.23.6-2.63.07-30.55-16.05-49.62 19.7-61.14 44.45-9.37 20.84-32.1 80.15-34.71 100.78-.23 5.44-.39 12.18 3.2 16.93 1.42 2.1 3.42 4.44 5.76 5.31 6.36.99 16.2-5.59 21.77-9.24l.1-.07z" fill="#11202c"/><path d="m172.84 88.81c-.07-.1-.15-.2-.25-.28.09.1.16.18.25.28z" fill="#062f27"/><path d="m201.99 275.75c7.02-17.85 17.87-70.67 22.59-92.26 2.37-19.77 10.83-59.91-11.3-71.03-2.32-1.17-5.18-2.19-7.74-2.59-6.46-1.02-9.63.19-12.73.16-1.69-.02-3.27.32-4.95.28-.24 0-.47 0-.71-.01-39.96-6.79-37.77 33.91-35.21 61.49 1.82 19.6 16.36 95.22 24.49 110.63 1.16 2.2 3.25 5.02 5.2 6.62.6.49.36.52 1.4 1.08 9.73 5.27 15.94-6.74 18.95-14.38z" fill="#b73757"/><path d="m195.79 147.37c-.03.12.5.74-.38 2.4-18.37 3.66-17.08-.25.38-2.4z" fill="#11202c"/><path d="m177.64 198.71c5.16.45 11.75-.95 10.47 1.71-.27.57-13.27 1.53-10.47-1.71z" fill="#11202c"/><path d="m188.41 249.46c1.1.11 4.93.57 3.4 2.63-.51.68-3.12-.21-3.78-.23-10.03-.25-7.1-3.14.38-2.4z" fill="#11202c"/><path d="m188.71 229.16c-13.49 3.98-11.59.7.39-2.75 0 .11.57.18.31 2.24z" fill="#11202c"/><path d="m191.9 177.6c5.7.57 5.91 2.27 1 2.42-7.74.24-10.58-3.39-1-2.42z" fill="#11202c"/><path d="m186.52 114.28c-1.01-.51-1.83-1.44-2.33-2.65l-.04-.09c-1.91-4.22-3.72-8.2-6.02-12.05-3.42-5.63-8.17-11.2-13.73-16.1-.94-.73-1.99-1.54-3.02-2.06-.32-.16-.61-.28-.87-.36.12.24.21.52.23.84v.31c-.04.6-.36 1.18-.84 1.53-.85.63-1.7.45-2.87.18-.41-.09-1.26-.28-1.54-.27-.25.02-.59.15-.7.19-5.36 2.22-12.41 4.39-18.86 1.16-.11-.06-.22-.11-.33-.17-.08-.04-.15-.07-.23-.11-4.58-2.29-7.15-7.19-6.56-12.47.58-5.16 4.05-9.26 8.84-10.45-1.22-4.85.67-10.21 4.94-13.81 4.02-3.4 9.08-4.24 13.2-2.17.56.28 1.1.61 1.62.99.16.12.35.27.53.37 1.37-1.34 2.82-2.22 4.41-2.7 3.61-.97 6.91-.7 9.87.79 10.53 5.28 14.18 24.51 17.11 39.96.47 2.48.91 4.82 1.35 6.91.75-2.66 1.45-5.46 2.18-8.34 3.43-13.65 6.98-27.76 17.11-35.46.05-.04.11-.08.17-.11 2.51-1.54 5.66-1.77 8.04-.58.77.39 1.45.92 2.01 1.56 4.84-4.57 11.6-5.58 17.77-2.49 6.25 3.13 9.85 9.67 9.19 16.67-.08.89-.34 1.74-.66 2.54 1.06.25 2.06.61 2.97 1.06 5.07 2.54 7.47 8.27 5.98 14.25-1.33 5.36-6 10.68-13.42 10.51-5.28.03-11.56-2.15-15.65-4.2-1.12-.56-2.16-1.15-3.09-1.75-.08-.05-.15-.1-.22-.16-.21-.18-.42-.41-.6-.64-1.83.57-5.3 2.41-10.32 6.3-5.31 4.29-10.27 9.82-14.32 15.95-.01.02-.03.04-.04.06-.48.68-.92 1.45-1.39 2.26-.76 1.33-1.55 2.7-2.65 3.89-.07.07-.14.14-.21.2-1.28 1.04-3 1.1-4.38 1.14-.2 0-.4.01-.59.02-.73.03-1.41-.11-2.05-.43z" fill="#497c3a"/><path d="m237.03 48.47c5 2.51 8.7 7.89 8.06 14.63-.09.96-.49 1.93-.89 2.82-.25.58-.36 1.06-.11 1.35l.06.06c.06.05.13.1.21.14.38.19 1 .25 1.63.37.94.22 1.79.53 2.55.91 9.53 4.78 5.4 21.13-6.47 20.85-4.47.02-10.29-1.73-14.77-3.98-1.05-.53-2.03-1.08-2.9-1.64-.12-.1-.26-.27-.34-.39-.26-.46 1.25-.02 1.02-.44-.11-.1-.24-.19-.38-.26-3-1.51-11.47 4.86-13.82 6.69-5.67 4.59-10.78 10.39-14.78 16.44-1.36 1.92-2.31 4.25-3.87 5.94-.88.72-2.49.64-3.77.7-.38.02-.72-.06-1.02-.21-.62-.31-1.08-.93-1.36-1.62-1.91-4.21-3.8-8.39-6.19-12.38-3.75-6.18-8.73-11.84-14.18-16.64-1.03-.8-2.19-1.7-3.41-2.32-1.45-.73-2.99-1.05-4.51-.33-1.25 1.01.86 2.34.89 2.81-.02.26-2.37-.56-3.38-.46-.41.03-.82.15-1.25.31-5.54 2.3-11.73 3.99-17.2 1.25-.11-.05-.22-.11-.33-.17-.08-.04-.16-.07-.23-.11-8.24-4.13-6.9-16.91 1.85-19.07.57-.15 1.5-.16 1.75-.67.18-.3.03-.95-.11-1.38-2.66-8.64 7.32-17.99 15.08-14.1.45.22.89.49 1.32.81.31.24.64.47.98.64.66.33 1.35.41 1.98-.23 1.07-1.1 2.29-1.98 3.79-2.43 3.21-.86 5.97-.55 8.36.65 13.42 6.73 15.17 41.3 19.18 52.43 5.79-15.58 7.24-39.29 20.74-49.57 1.82-1.12 4.22-1.4 6.03-.49.82.41 1.52 1.07 2 2 .2.33.38.56.57.66.15.07.3.07.49-.05 4.64-5.62 11.42-6.2 16.73-3.54m1.85-3.67c-6.28-3.15-13.33-2.43-18.65 1.6-.36-.25-.73-.48-1.13-.68-3-1.5-6.94-1.24-10.04.67-.12.07-.23.15-.33.23-10.57 8.05-14.41 22.92-17.74 36.14-2.96-15.52-6.86-33.91-17.82-39.41-3.43-1.72-7.22-2.04-11.28-.95-.04.01-.07.02-.11.03-1.42.42-2.73 1.1-3.97 2.07-.35-.22-.71-.42-1.07-.6-4.87-2.44-10.8-1.51-15.46 2.44-4.32 3.66-6.51 8.93-5.95 13.99-4.67 1.89-7.95 6.27-8.55 11.62-.69 6.15 2.33 11.86 7.69 14.55.07.04.15.07.22.11.11.06.22.12.33.17 7.16 3.59 14.74 1.31 20.56-1.09.01 0 .03 0 .04-.01.28.05.71.14.97.2 1.31.29 2.94.66 4.55-.54.39-.29.73-.65 1-1.06.32.24.65.49.95.73 5.39 4.76 9.98 10.15 13.29 15.6 2.23 3.73 4.01 7.66 5.9 11.82l.02.05c.69 1.65 1.86 2.95 3.3 3.67.94.47 2 .7 3.05.65.2 0 .38-.02.57-.02 1.51-.05 3.8-.12 5.62-1.6.15-.12.29-.25.42-.4 1.26-1.36 2.14-2.9 2.92-4.26.44-.77.85-1.49 1.28-2.09.03-.04.05-.08.08-.11 3.93-5.95 8.73-11.3 13.9-15.48 3.85-2.98 6.77-4.7 8.53-5.49.06.04.12.08.18.12.99.64 2.1 1.27 3.29 1.87 4.29 2.15 10.89 4.44 16.59 4.42 8.53.17 13.88-5.93 15.41-12.07 1.73-6.95-1.11-13.62-7.06-16.6-.43-.21-.87-.41-1.32-.58.07-.32.12-.66.15-1 .74-7.83-3.31-15.17-10.32-18.69z" fill="#12202c"/><path d="m205.31 275.9c8.97-22.62 23.13-89.25 25.44-114.91 1.87-23.15.13-49.88-26.79-53.21-1.11-.23-1.89-.57-2.12-1.13-.31-.64.26-1.64.68-2.29 2.44-3.61 4.79-7.35 7.88-10.41 2.02-1.85 4.01-3.86 6.18-5.56 2.41-2 5.88-2.95 8.56-4.43.06-.05.18-.15.24-.2.42-.37.41-.87.07-1.13-2.48-1.32-7.17 1.82-9.53 3.11-9.08 5.56-16.51 14.09-21.94 23.23-1.42 2.51-.67 3.1 2.37 2.69 1.24-.11 2.67-.19 4.31-.14 13.86.32 22.79 9.49 25.21 23.04 3.04 16.75-.18 35.41-2.72 51.88-5.45 24.14-13.91 69.08-22.41 89.86-5.5 13.25-15.64 18.38-23.8 4.45-9.07-18.03-21.33-83.89-24.23-106.35-2.98-26.6-5.02-66.8 30.87-62.69 2.77.09 2.41-1.58 1.57-3.26-2.22-4.8-4.59-9.61-7.73-14.05-2.6-3.66-5.72-7.01-8.98-10.38-2.6-2.62-8.11-7.21-11.75-5.2-1.59 2.06 5.24 5.44 6.61 6.73 4.51 3.29 7.82 7.37 11.09 11.83 1.73 2.57 4.01 5.59 4.96 8.37.08.73-.73 1.16-2.2 1.45-34.42 2.48-31.77 42.9-28.51 70.01 3.03 22.65 14.99 85.03 23.66 103.93 2.67 4.74 6.1 10.55 11.65 12.7 2.32 1.03 5.25 1.97 7.7 1.48 5.92-2.51 10.82-13.29 13.63-19.33l.05-.11z" fill="#11202c"/><path d="m69.52 129.54c-.12-.05-.24-.08-.36-.1.13.03.24.06.36.1z" fill="#062f27"/><path d="m195.15 271c-3.75-18.81-23.2-69.11-30.9-89.81-8.7-17.91-23.3-56.25-47.93-53.63-2.58.27-5.54.96-7.91 2.01-5.99 2.64-8 5.37-10.62 7.02-1.43.9-2.57 2.03-4.01 2.91-.2.12-.4.25-.6.37-37.28 15.9-13.43 48.95 3.65 70.77 12.14 15.5 65.26 71.24 80.44 79.81 2.17 1.23 5.45 2.47 7.95 2.75.77.09.58.24 1.76.15 11.03-.83 9.76-14.29 8.16-22.35z" fill="#f47d3b"/><path d="m120.5 166.39c.03.12.83.35.98 2.23-13.47 13.02-14.5 9.03-.98-2.23z" fill="#11202c"/><path d="m133.01 219.38c4.58-2.41 9.37-7.15 9.73-4.23.08.63-10.34 8.47-9.73 4.23z" fill="#11202c"/><path d="m169.51 256.24c.99-.5 4.46-2.18 4.28.37-.06.85-2.74 1.51-3.3 1.85-8.57 5.21-7.67 1.2-.98-2.23z" fill="#11202c"/><path d="m158.79 239c-9.19 10.65-9.37 6.85-1.16-2.52.06.1.57-.16 1.47 1.72z" fill="#11202c"/><path d="m133.57 193.91c5.1-2.6 6.2-1.28 2.15 1.5-6.38 4.38-10.73 2.87-2.15-1.5z" fill="#11202c"/><path d="m94.8 143.56c-1.12.12-2.32-.22-3.39-.96l-.08-.05c-3.89-2.51-7.56-4.88-11.58-6.88-5.92-2.88-12.93-5-20.26-6.12-1.18-.11-2.51-.22-3.66-.1-.36.04-.66.1-.92.17.23.14.45.33.65.58.06.08.12.17.17.26.29.53.33 1.19.12 1.75-.38 1-1.19 1.29-2.32 1.71-.39.14-1.21.45-1.44.6-.2.15-.42.44-.49.54-3.31 4.77-8.07 10.41-15.23 11.18-.12.01-.25.03-.37.04-.08.01-.17.02-.25.03-5.09.55-9.9-2.18-12.26-6.94-2.31-4.65-1.6-9.98 1.79-13.57-3.65-3.42-4.95-8.95-3.32-14.29 1.54-5.04 5.35-8.48 9.93-8.97.62-.07 1.26-.08 1.89-.04.2.02.44.03.65.03.43-1.87 1.17-3.39 2.25-4.66 2.51-2.77 5.44-4.33 8.73-4.68 11.71-1.26 25.18 12.95 36 24.36 1.74 1.83 3.37 3.56 4.87 5.08-.81-2.64-1.73-5.38-2.68-8.2-4.49-13.33-9.14-27.12-4.8-39.08.02-.06.05-.13.08-.19 1.27-2.65 3.8-4.55 6.44-4.84.86-.09 1.72-.01 2.53.23 1.59-6.46 6.74-10.97 13.6-11.71s13.52 2.81 16.75 9.05c.41.79.65 1.64.82 2.49 1.03-.36 2.06-.6 3.07-.71 5.64-.61 10.76 2.91 12.74 8.75 1.78 5.23.73 12.23-5.61 16.1-4.43 2.88-10.88 4.44-15.43 4.93-1.25.13-2.44.2-3.55.2-.09 0-.18 0-.27-.02-.27-.04-.57-.12-.85-.22-1.23 1.47-3.16 4.89-5.27 10.88-2.14 6.48-3.33 13.81-3.42 21.16v.07c-.04.84 0 1.72.05 2.65.08 1.53.16 3.11-.12 4.7-.02.1-.04.19-.07.28-.51 1.57-1.93 2.55-3.07 3.33-.17.11-.33.23-.48.34-.59.42-1.25.67-1.95.75z" fill="#497c3a"/><path d="m101.69 60.89c5.56-.6 11.58 1.93 14.69 7.94.45.86.64 1.89.78 2.85.1.62.27 1.09.63 1.19l.08.02c.08.01.16.02.25 0 .42-.05.98-.33 1.57-.57.91-.32 1.79-.52 2.63-.61 10.6-1.14 15.97 14.85 5.84 21.04-3.75 2.44-9.59 4.1-14.58 4.64-1.17.13-2.29.19-3.32.19-.15-.02-.36-.08-.5-.15-.47-.25 1.04-.69.62-.93-.15-.03-.3-.03-.45-.01-3.34.36-7.02 10.29-8.01 13.1-2.29 6.93-3.45 14.57-3.53 21.82-.11 2.35.36 4.83-.04 7.08-.35 1.08-1.75 1.88-2.79 2.63-.31.22-.64.33-.97.37-.69.07-1.41-.19-2.02-.63-3.88-2.51-7.73-5-11.9-7.07-6.5-3.17-13.75-5.23-20.93-6.32-1.3-.12-2.76-.25-4.13-.1-1.61.17-3.08.73-3.97 2.16-.5 1.53 1.99 1.51 2.27 1.88.12.23-2.3.81-3.09 1.44-.33.25-.61.58-.88.94-3.42 4.93-7.7 9.7-13.8 10.36-.12.01-.24.02-.37.03-.09.01-.17.02-.26.03-9.17.98-14.95-10.49-8.75-17.04.4-.43 1.18-.94 1.11-1.51-.02-.35-.49-.81-.84-1.1-6.91-5.83-3.58-19.09 5.06-20.02.5-.05 1.02-.07 1.55-.03.39.03.8.05 1.17.01.74-.08 1.36-.39 1.54-1.26.3-1.5.85-2.9 1.87-4.09 2.24-2.46 4.73-3.69 7.39-3.97 14.92-1.6 35.1 26.53 44.49 33.73-3.56-16.24-15.17-36.96-9.37-52.91.93-1.93 2.79-3.46 4.8-3.68.91-.1 1.86.07 2.76.6.34.17.62.27.84.24.16-.02.29-.11.38-.3.86-7.24 6.26-11.39 12.16-12.02m-.42-4.07c-6.98.75-12.53 5.17-14.82 11.44-.44-.02-.87 0-1.31.04-3.34.36-6.51 2.71-8.09 6-.06.12-.11.25-.16.37-4.54 12.49.27 27.07 4.63 39.99-10.88-11.45-24.11-24.81-36.31-23.5-3.81.41-7.17 2.19-10 5.3-.03.03-.05.06-.08.09-.97 1.12-1.7 2.41-2.22 3.89-.41 0-.82.03-1.23.07-5.42.58-9.89 4.57-11.68 10.42-1.66 5.42-.64 11.03 2.56 14.98-2.91 4.12-3.3 9.58-.91 14.4 2.75 5.55 8.38 8.72 14.33 8.08.08 0 .17-.02.25-.03.13-.01.25-.02.37-.04 7.96-.86 13.11-6.87 16.7-12.04 0-.01.02-.02.03-.03.26-.11.68-.27.93-.36 1.26-.46 2.83-1.04 3.54-2.92.17-.46.26-.94.26-1.43.4.03.81.06 1.2.1 7.11 1.09 13.89 3.14 19.62 5.93 3.89 1.93 7.52 4.27 11.36 6.75l.05.03c1.47 1.01 3.16 1.47 4.76 1.3 1.05-.11 2.06-.5 2.92-1.11.16-.12.31-.22.47-.33 1.25-.86 3.13-2.15 3.86-4.39.06-.18.11-.37.14-.56.32-1.82.23-3.6.15-5.17-.04-.88-.09-1.71-.05-2.45 0-.05 0-.09 0-.14.09-7.13 1.23-14.23 3.31-20.54 1.62-4.59 3.15-7.61 4.2-9.23h.22c1.18 0 2.45-.07 3.77-.21 4.77-.51 11.56-2.16 16.34-5.25 7.26-4.47 8.47-12.5 6.43-18.49-2.3-6.78-8.3-10.85-14.91-10.14-.47.05-.95.13-1.43.22-.12-.31-.26-.62-.42-.92-3.61-6.99-10.99-10.97-18.79-10.13z" fill="#12202c"/><path d="m198.03 269.33c-4.69-23.87-28.83-87.57-40.76-110.41-10.95-20.48-26.87-42.02-51.32-30.26-1.06.4-1.9.54-2.4.2-.61-.38-.67-1.52-.67-2.29.1-4.36.05-8.77 1-13.02.7-2.65 1.29-5.42 2.19-8.01.95-2.99 3.35-5.66 4.81-8.36.02-.07.07-.22.09-.3.15-.54-.12-.95-.55-.99-2.8.23-5.04 5.41-6.33 7.77-4.63 9.59-6.27 20.78-5.88 31.41.17 2.88 1.12 2.97 3.45.98.99-.76 2.14-1.6 3.55-2.45 11.83-7.23 24.3-4.34 33.66 5.74 11.61 12.44 19 29.88 25.78 45.11 8.47 23.26 25.67 65.62 29.76 87.7 2.54 14.12-3.21 23.92-17.61 16.61-17.38-10.26-63.32-59.02-77.9-76.34-16.89-20.76-40.36-53.47-7.95-69.42 2.38-1.42 1.18-2.63-.44-3.58-4.47-2.84-9.06-5.6-14.1-7.63-4.17-1.67-8.6-2.8-13.17-3.87-3.6-.8-10.72-1.67-12.7 1.98-.22 2.6 7.35 1.74 9.2 2.09 5.57.33 10.57 1.97 15.73 3.95 2.85 1.22 6.4 2.53 8.69 4.36.46.58.01 1.37-1.06 2.41-27.61 20.7-3.52 53.27 13.89 74.31 14.8 17.41 58.6 63.41 76.11 74.62 4.81 2.54 10.84 5.58 16.67 4.38 2.51-.38 5.48-1.18 7.27-2.92 3.62-5.32 1.91-17.03 1.01-23.63l-.02-.12z" fill="#11202c"/><text fill="#11202c" font-family="MadimiOne-Regular, 'Madimi One'" font-size="72" transform="translate(381.05 119.33)"><tspan letter-spacing="-.03em" x="0" y="0">F</tspan><tspan x="33.34" y="0">o</tspan><tspan letter-spacing="-.03em" x="71.64" y="0">r</tspan><tspan letter-spacing="0em" x="99.58" y="0">e</tspan><tspan letter-spacing="-.02em" x="136.08" y="0">s</tspan><tspan letter-spacing=".02em" x="168.62" y="0">t</tspan><tspan letter-spacing="0em" x="199.37" y="0">d</tspan><tspan letter-spacing="0em" x="239.04" y="0">al</tspan><tspan x="293.83" y="0">e</tspan><tspan letter-spacing="0em" x="0" y="70.4">N</tspan><tspan x="46.37" y="70.4">ei</tspan><tspan letter-spacing="0em" x="101.81" y="70.4">g</tspan><tspan letter-spacing="-.02em" x="142.34" y="70.4">h</tspan><tspan letter-spacing="0em" x="181.51" y="70.4">bo</tspan><tspan letter-spacing="-.02em" x="260.49" y="70.4">r</tspan><tspan x="288.79" y="70.4">hood</tspan><tspan letter-spacing="-.02em" x="0" y="140.8">G</tspan><tspan letter-spacing="0em" x="42.48" y="140.8">a</tspan><tspan letter-spacing="-.03em" x="77.98" y="140.8">r</tspan><tspan x="105.91" y="140.8">d</tspan><tspan letter-spacing="0em" x="146.23" y="140.8">e</tspan><tspan x="182.09" y="140.8">n</tspan><tspan letter-spacing="-.04em" x="238.82" y="140.8">P</tspan><tspan letter-spacing="-.03em" x="277.92" y="140.8">r</tspan><tspan letter-spacing="0em" x="305.85" y="140.8">o</tspan><tspan x="344.01" y="140.8">je</tspan><tspan letter-spacing="-.01em" x="399.17" y="140.8">c</tspan><tspan x="430.77" y="140.8">t</tspan></text></svg>