<?xml version="1.0" encoding="UTF-8" standalone="no"?>
<!DOCTYPE svg PUBLIC "-//W3C//DTD SVG 1.1//EN" "http://www.w3.org/Graphics/SVG/1.1/DTD/svg11.dtd">
<svg width="100%" height="100%" viewBox="0 0 2758 1038" version="1.1" xmlns="http://www.w3.org/2000/svg" xmlns:xlink="http://www.w3.org/1999/xlink" xml:space="preserve" xmlns:serif="http://www.serif.com/" style="fill-rule:evenodd;clip-rule:evenodd;stroke-linecap:round;stroke-linejoin:round;stroke-miterlimit:1.5;">
    <g transform="matrix(1,0,0,1,-3431.687383,-1775.444542)">
        <g id="Logo" transform="matrix(1.838667,0,0,0.692,3431.687383,1775.444542)">
            <rect x="0" y="0" width="1500" height="1500" style="fill:rgb(0,67,27);"/>
            <g transform="matrix(0.44525,0,0,1.244701,-115.436911,-166.184971)">
                <g transform="matrix(1.221498,0,0,1.160991,-161.848534,-2.321981)">
                    <path d="M1072,420L1072,903L741.5,1110L411,903L411,420L1072,420Z" style="fill:rgb(105,69,0);stroke:black;stroke-width:29.17px;"/>
                </g>
                <g transform="matrix(1.221498,0,0,1.160991,-172.23127,0)">
                    <path d="M424,579L1079,579" style="fill:none;"/>
                </g>
                <g transform="matrix(1.221498,0,0,1.160991,-172.23127,0)">
                    <path d="M911,160L1013,418L809,418L911,160Z" style="fill:rgb(53,140,90);stroke:black;stroke-width:29.17px;"/>
                </g>
                <g transform="matrix(1.201504,0,0,1.195137,-163.833469,-20.283191)">
                    <rect x="420" y="424" width="672" height="170" style="fill:rgb(224,186,112);stroke:black;stroke-width:28.97px;"/>
                </g>
                <g transform="matrix(1.221498,0,0,1.160991,313.925081,80.108359)">
                    <path d="M163.357,400.967C159.004,401.647 154.543,402 150,402C102.535,402 64,363.465 64,316C64,268.535 102.535,230 150,230C153.128,230 156.217,230.167 159.259,230.494C159.087,228.018 159,225.519 159,223C159,163.945 206.945,116 266,116C324.146,116 371.522,162.481 372.966,220.283C385.542,213.715 399.841,210 415,210C465.224,210 506,250.776 506,301C506,351.224 465.224,392 415,392C413.308,392 411.628,391.954 409.959,391.862C408.713,427.473 379.412,456 343.5,456C332.678,456 322.457,453.41 313.423,448.816C297.224,462.055 276.532,470 254,470C210.763,470 174.305,440.745 163.357,400.967Z" style="fill:rgb(82,251,117);stroke:black;stroke-width:29.17px;"/>
                </g>
                <g transform="matrix(1.698916,0,0,1.614759,-580.956879,-375.368302)">
                    <path d="M780,768.4C804.421,730 853.263,730 877.684,749.2C902.106,768.4 902.106,806.8 877.684,845.2C860.589,874 816.632,902.8 780,922C743.368,902.8 699.411,874 682.316,845.2C657.895,806.8 657.895,768.4 682.316,749.2C706.737,730 755.579,730 780,768.4Z" style="fill:rgb(251,163,197);stroke:black;stroke-width:20.97px;"/>
                </g>
            </g>
            <g transform="matrix(0.543872,0,0,1.445087,-118.020305,-2408.156853)">
                <g>
                    <g transform="matrix(300,0,0,300,1129,2175)">
                        <path d="M0.14,0.01C0.122,0.01 0.108,0.004 0.097,-0.007C0.086,-0.018 0.08,-0.033 0.08,-0.05L0.08,-0.64C0.08,-0.657 0.086,-0.671 0.097,-0.683C0.109,-0.694 0.123,-0.7 0.14,-0.7L0.199,-0.7L0.199,-0.05C0.199,-0.033 0.193,-0.018 0.182,-0.007C0.171,0.004 0.157,0.01 0.14,0.01ZM0.16,-0.592L0.16,-0.7L0.442,-0.7C0.458,-0.7 0.471,-0.695 0.481,-0.685C0.491,-0.675 0.496,-0.662 0.496,-0.646C0.496,-0.63 0.491,-0.617 0.481,-0.607C0.471,-0.597 0.458,-0.592 0.442,-0.592L0.16,-0.592ZM0.155,-0.296L0.155,-0.405L0.422,-0.405C0.438,-0.405 0.451,-0.4 0.462,-0.39C0.472,-0.379 0.477,-0.366 0.477,-0.351C0.477,-0.334 0.472,-0.321 0.462,-0.311C0.451,-0.301 0.438,-0.296 0.422,-0.296L0.155,-0.296Z" style="fill:white;fill-rule:nonzero;"/>
                    </g>
                    <g transform="matrix(300,0,0,300,1271.8,2175)">
                        <path d="M0.286,0.015C0.237,0.015 0.194,0.003 0.157,-0.02C0.12,-0.044 0.091,-0.076 0.071,-0.118C0.05,-0.159 0.04,-0.206 0.04,-0.259C0.04,-0.311 0.05,-0.358 0.071,-0.399C0.091,-0.439 0.12,-0.471 0.157,-0.495C0.194,-0.518 0.237,-0.53 0.286,-0.53C0.336,-0.53 0.379,-0.518 0.416,-0.495C0.453,-0.471 0.482,-0.439 0.503,-0.399C0.524,-0.358 0.534,-0.311 0.534,-0.259C0.534,-0.206 0.524,-0.159 0.503,-0.118C0.482,-0.076 0.453,-0.044 0.416,-0.02C0.379,0.003 0.336,0.015 0.286,0.015ZM0.286,-0.091C0.327,-0.091 0.359,-0.105 0.382,-0.135C0.404,-0.164 0.416,-0.205 0.416,-0.259C0.416,-0.311 0.404,-0.352 0.382,-0.381C0.359,-0.41 0.327,-0.424 0.286,-0.424C0.245,-0.424 0.214,-0.41 0.192,-0.381C0.169,-0.352 0.158,-0.311 0.158,-0.259C0.158,-0.205 0.169,-0.164 0.192,-0.135C0.214,-0.105 0.245,-0.091 0.286,-0.091Z" style="fill:white;fill-rule:nonzero;"/>
                    </g>
                    <g transform="matrix(300,0,0,300,1435,2175)">
                        <path d="M0.128,0.01C0.112,0.01 0.098,0.004 0.087,-0.007C0.076,-0.019 0.07,-0.033 0.07,-0.049L0.07,-0.467C0.07,-0.483 0.076,-0.497 0.087,-0.508C0.098,-0.519 0.112,-0.525 0.129,-0.525C0.146,-0.525 0.16,-0.519 0.17,-0.508C0.18,-0.496 0.185,-0.482 0.185,-0.467L0.185,-0.413L0.17,-0.427C0.176,-0.443 0.186,-0.458 0.199,-0.474C0.212,-0.49 0.227,-0.503 0.245,-0.514C0.263,-0.525 0.283,-0.53 0.306,-0.53C0.325,-0.53 0.34,-0.525 0.351,-0.514C0.363,-0.504 0.368,-0.49 0.368,-0.473C0.368,-0.457 0.363,-0.443 0.351,-0.432C0.339,-0.421 0.324,-0.415 0.306,-0.415C0.28,-0.415 0.258,-0.41 0.24,-0.4C0.222,-0.39 0.208,-0.377 0.199,-0.359C0.19,-0.343 0.185,-0.323 0.185,-0.302L0.185,-0.049C0.185,-0.033 0.18,-0.019 0.169,-0.007C0.157,0.004 0.143,0.01 0.128,0.01Z" style="fill:white;fill-rule:nonzero;"/>
                    </g>
                    <g transform="matrix(300,0,0,300,1533.55,2175)">
                        <path d="M0.287,0.015C0.24,0.015 0.198,0.004 0.161,-0.017C0.124,-0.039 0.094,-0.07 0.072,-0.11C0.051,-0.15 0.04,-0.199 0.04,-0.255C0.04,-0.307 0.05,-0.354 0.07,-0.396C0.09,-0.437 0.117,-0.47 0.153,-0.494C0.189,-0.518 0.23,-0.53 0.278,-0.53C0.314,-0.53 0.347,-0.523 0.376,-0.51C0.405,-0.496 0.429,-0.478 0.449,-0.455C0.469,-0.433 0.485,-0.408 0.495,-0.381C0.506,-0.354 0.512,-0.327 0.512,-0.299C0.512,-0.276 0.506,-0.257 0.495,-0.243C0.484,-0.23 0.466,-0.223 0.44,-0.223L0.16,-0.223C0.164,-0.192 0.172,-0.166 0.185,-0.146C0.198,-0.127 0.213,-0.112 0.232,-0.103C0.251,-0.094 0.272,-0.089 0.294,-0.089C0.321,-0.089 0.342,-0.095 0.358,-0.106C0.374,-0.117 0.387,-0.131 0.397,-0.146C0.403,-0.153 0.409,-0.16 0.416,-0.166C0.424,-0.171 0.434,-0.174 0.446,-0.174C0.461,-0.174 0.474,-0.169 0.484,-0.159C0.494,-0.149 0.498,-0.135 0.498,-0.118C0.498,-0.103 0.492,-0.088 0.482,-0.072C0.472,-0.057 0.458,-0.042 0.439,-0.029C0.421,-0.016 0.399,-0.005 0.373,0.003C0.347,0.011 0.319,0.015 0.287,0.015ZM0.16,-0.307L0.397,-0.307C0.392,-0.345 0.38,-0.374 0.359,-0.395C0.339,-0.416 0.312,-0.427 0.279,-0.426C0.247,-0.427 0.221,-0.417 0.2,-0.397C0.179,-0.378 0.165,-0.348 0.16,-0.307Z" style="fill:white;fill-rule:nonzero;"/>
                    </g>
                    <g transform="matrix(300,0,0,300,1690,2175)">
                        <path d="M0.254,0.018C0.209,0.018 0.171,0.011 0.139,-0.004C0.107,-0.019 0.083,-0.037 0.066,-0.058C0.049,-0.079 0.041,-0.099 0.04,-0.118C0.04,-0.132 0.044,-0.145 0.054,-0.156C0.063,-0.167 0.077,-0.173 0.094,-0.173C0.107,-0.173 0.118,-0.17 0.127,-0.164C0.135,-0.158 0.141,-0.152 0.144,-0.146C0.158,-0.126 0.174,-0.111 0.193,-0.099C0.212,-0.087 0.234,-0.082 0.261,-0.082C0.287,-0.082 0.307,-0.087 0.32,-0.098C0.333,-0.108 0.339,-0.122 0.339,-0.138C0.339,-0.151 0.335,-0.162 0.326,-0.171C0.317,-0.18 0.304,-0.188 0.288,-0.194C0.272,-0.201 0.252,-0.207 0.23,-0.214C0.209,-0.221 0.188,-0.228 0.167,-0.236C0.147,-0.243 0.128,-0.253 0.112,-0.265C0.095,-0.276 0.082,-0.291 0.072,-0.308C0.062,-0.325 0.057,-0.347 0.057,-0.372C0.057,-0.402 0.065,-0.429 0.081,-0.453C0.097,-0.477 0.119,-0.496 0.148,-0.51C0.177,-0.524 0.21,-0.531 0.248,-0.531C0.286,-0.531 0.319,-0.525 0.346,-0.512C0.374,-0.5 0.395,-0.484 0.411,-0.465C0.426,-0.446 0.434,-0.427 0.434,-0.407C0.434,-0.392 0.431,-0.38 0.423,-0.37C0.415,-0.36 0.403,-0.355 0.387,-0.355C0.375,-0.355 0.364,-0.358 0.354,-0.364C0.345,-0.37 0.338,-0.377 0.332,-0.384C0.327,-0.391 0.321,-0.398 0.315,-0.406C0.308,-0.413 0.299,-0.42 0.288,-0.425C0.277,-0.43 0.263,-0.432 0.245,-0.432C0.221,-0.432 0.203,-0.428 0.19,-0.418C0.177,-0.408 0.171,-0.395 0.171,-0.38C0.171,-0.366 0.176,-0.355 0.186,-0.347C0.196,-0.339 0.21,-0.331 0.228,-0.325C0.247,-0.319 0.269,-0.311 0.295,-0.302C0.318,-0.295 0.339,-0.287 0.358,-0.278C0.377,-0.269 0.394,-0.259 0.409,-0.247C0.423,-0.236 0.434,-0.222 0.442,-0.206C0.45,-0.19 0.454,-0.171 0.454,-0.149C0.454,-0.12 0.447,-0.092 0.432,-0.067C0.417,-0.041 0.395,-0.02 0.365,-0.005C0.335,0.01 0.298,0.018 0.254,0.018Z" style="fill:white;fill-rule:nonzero;"/>
                    </g>
                    <g transform="matrix(300,0,0,300,1827.7,2175)">
                        <path d="M0.239,0.01C0.21,0.01 0.185,0.004 0.165,-0.009C0.145,-0.021 0.13,-0.038 0.12,-0.06C0.109,-0.081 0.104,-0.105 0.104,-0.131L0.104,-0.568C0.104,-0.584 0.11,-0.597 0.121,-0.608C0.132,-0.619 0.145,-0.625 0.162,-0.625C0.177,-0.625 0.191,-0.619 0.202,-0.608C0.213,-0.597 0.219,-0.584 0.219,-0.568L0.219,-0.137C0.219,-0.127 0.221,-0.119 0.224,-0.113C0.227,-0.107 0.232,-0.103 0.24,-0.104C0.247,-0.103 0.253,-0.105 0.258,-0.109C0.263,-0.113 0.269,-0.116 0.275,-0.12C0.281,-0.123 0.288,-0.124 0.297,-0.124C0.313,-0.124 0.327,-0.119 0.338,-0.108C0.349,-0.097 0.354,-0.083 0.354,-0.067C0.354,-0.05 0.349,-0.036 0.337,-0.025C0.326,-0.013 0.311,-0.005 0.293,0.001C0.276,0.007 0.258,0.01 0.239,0.01ZM0.082,-0.414C0.068,-0.414 0.055,-0.418 0.045,-0.428C0.035,-0.438 0.03,-0.45 0.03,-0.465C0.03,-0.478 0.035,-0.49 0.045,-0.5C0.055,-0.51 0.068,-0.515 0.082,-0.515L0.313,-0.515C0.327,-0.515 0.34,-0.51 0.35,-0.5C0.36,-0.49 0.365,-0.478 0.365,-0.465C0.365,-0.45 0.36,-0.438 0.35,-0.428C0.34,-0.418 0.327,-0.414 0.313,-0.414L0.082,-0.414Z" style="fill:white;fill-rule:nonzero;"/>
                    </g>
                    <g transform="matrix(300,0,0,300,1940.2,2175)">
                        <path d="M0.262,0.015C0.216,0.015 0.177,0.003 0.144,-0.021C0.111,-0.044 0.085,-0.077 0.067,-0.118C0.049,-0.159 0.04,-0.206 0.04,-0.258C0.04,-0.31 0.049,-0.356 0.068,-0.397C0.086,-0.438 0.112,-0.47 0.146,-0.494C0.18,-0.518 0.219,-0.53 0.264,-0.53C0.29,-0.53 0.313,-0.526 0.333,-0.519C0.353,-0.511 0.371,-0.501 0.387,-0.488C0.402,-0.475 0.416,-0.459 0.426,-0.441L0.41,-0.434L0.41,-0.672C0.41,-0.688 0.416,-0.702 0.426,-0.713C0.438,-0.724 0.451,-0.73 0.468,-0.73C0.484,-0.73 0.498,-0.724 0.509,-0.713C0.519,-0.702 0.525,-0.688 0.525,-0.672L0.525,-0.05C0.525,-0.033 0.519,-0.019 0.509,-0.007C0.498,0.004 0.484,0.009 0.468,0.009C0.451,0.009 0.437,0.003 0.426,-0.01C0.415,-0.023 0.41,-0.04 0.41,-0.059L0.411,-0.097L0.428,-0.097C0.421,-0.078 0.41,-0.061 0.395,-0.044C0.38,-0.027 0.361,-0.013 0.339,-0.002C0.316,0.009 0.291,0.015 0.262,0.015ZM0.288,-0.09C0.327,-0.091 0.357,-0.106 0.38,-0.135C0.403,-0.165 0.414,-0.205 0.414,-0.257C0.414,-0.308 0.403,-0.349 0.381,-0.38C0.358,-0.41 0.327,-0.425 0.286,-0.425C0.246,-0.425 0.215,-0.41 0.192,-0.38C0.169,-0.35 0.158,-0.309 0.158,-0.256C0.158,-0.204 0.169,-0.163 0.192,-0.134C0.215,-0.104 0.247,-0.09 0.288,-0.09Z" style="fill:white;fill-rule:nonzero;"/>
                    </g>
                    <g transform="matrix(300,0,0,300,2109.7,2175)">
                        <path d="M0.218,0.015C0.185,0.015 0.155,0.009 0.129,-0.004C0.101,-0.016 0.08,-0.034 0.064,-0.057C0.048,-0.08 0.04,-0.108 0.04,-0.14C0.04,-0.186 0.056,-0.224 0.087,-0.252C0.118,-0.28 0.169,-0.299 0.24,-0.309C0.264,-0.312 0.286,-0.316 0.304,-0.319C0.324,-0.322 0.339,-0.328 0.35,-0.335C0.361,-0.343 0.366,-0.354 0.366,-0.369C0.366,-0.381 0.363,-0.391 0.357,-0.401C0.351,-0.41 0.342,-0.417 0.33,-0.423C0.318,-0.428 0.302,-0.431 0.283,-0.431C0.257,-0.431 0.237,-0.426 0.222,-0.416C0.208,-0.406 0.196,-0.396 0.188,-0.384C0.181,-0.375 0.173,-0.368 0.163,-0.362C0.154,-0.357 0.143,-0.354 0.131,-0.354C0.115,-0.354 0.102,-0.359 0.092,-0.368C0.083,-0.377 0.079,-0.388 0.079,-0.403C0.079,-0.418 0.084,-0.433 0.093,-0.448C0.103,-0.463 0.118,-0.477 0.136,-0.489C0.154,-0.501 0.176,-0.511 0.201,-0.518C0.226,-0.526 0.254,-0.529 0.284,-0.529C0.329,-0.529 0.366,-0.521 0.395,-0.505C0.424,-0.488 0.446,-0.465 0.46,-0.436C0.474,-0.407 0.481,-0.373 0.481,-0.336L0.481,-0.121C0.481,-0.113 0.482,-0.108 0.484,-0.105C0.486,-0.102 0.49,-0.099 0.495,-0.098C0.506,-0.095 0.515,-0.089 0.524,-0.081C0.532,-0.072 0.536,-0.06 0.536,-0.046C0.536,-0.03 0.531,-0.017 0.519,-0.006C0.507,0.005 0.49,0.01 0.469,0.01C0.444,0.01 0.424,0.003 0.411,-0.009C0.397,-0.022 0.389,-0.038 0.386,-0.058L0.386,-0.069L0.383,-0.069C0.365,-0.042 0.343,-0.022 0.318,-0.007C0.293,0.008 0.26,0.015 0.218,0.015ZM0.239,-0.085C0.263,-0.085 0.284,-0.09 0.304,-0.1C0.323,-0.11 0.339,-0.124 0.35,-0.142C0.362,-0.16 0.367,-0.18 0.367,-0.203L0.367,-0.249C0.367,-0.251 0.367,-0.252 0.366,-0.252C0.365,-0.252 0.363,-0.252 0.361,-0.249C0.352,-0.243 0.341,-0.239 0.328,-0.236C0.315,-0.232 0.302,-0.23 0.288,-0.228C0.274,-0.226 0.26,-0.223 0.248,-0.221C0.216,-0.214 0.193,-0.206 0.178,-0.195C0.163,-0.184 0.155,-0.168 0.155,-0.149C0.155,-0.132 0.162,-0.117 0.175,-0.104C0.188,-0.091 0.21,-0.085 0.239,-0.085Z" style="fill:white;fill-rule:nonzero;"/>
                    </g>
                    <g transform="matrix(300,0,0,300,2268.7,2175)">
                        <path d="M0.128,0.01C0.111,0.01 0.098,0.004 0.087,-0.007C0.076,-0.019 0.07,-0.033 0.07,-0.049L0.07,-0.672C0.07,-0.688 0.076,-0.702 0.087,-0.713C0.098,-0.724 0.111,-0.73 0.128,-0.73C0.144,-0.73 0.158,-0.724 0.169,-0.713C0.18,-0.702 0.185,-0.688 0.185,-0.672L0.185,-0.049C0.185,-0.033 0.18,-0.019 0.169,-0.007C0.158,0.004 0.144,0.01 0.128,0.01Z" style="fill:white;fill-rule:nonzero;"/>
                    </g>
                    <g transform="matrix(300,0,0,300,2336.35,2175)">
                        <path d="M0.287,0.015C0.24,0.015 0.198,0.004 0.161,-0.017C0.124,-0.039 0.094,-0.07 0.072,-0.11C0.051,-0.15 0.04,-0.199 0.04,-0.255C0.04,-0.307 0.05,-0.354 0.07,-0.396C0.09,-0.437 0.117,-0.47 0.153,-0.494C0.189,-0.518 0.23,-0.53 0.278,-0.53C0.314,-0.53 0.347,-0.523 0.376,-0.51C0.405,-0.496 0.429,-0.478 0.449,-0.455C0.469,-0.433 0.485,-0.408 0.495,-0.381C0.506,-0.354 0.512,-0.327 0.512,-0.299C0.512,-0.276 0.506,-0.257 0.495,-0.243C0.484,-0.23 0.466,-0.223 0.44,-0.223L0.16,-0.223C0.164,-0.192 0.172,-0.166 0.185,-0.146C0.198,-0.127 0.213,-0.112 0.232,-0.103C0.251,-0.094 0.272,-0.089 0.294,-0.089C0.321,-0.089 0.342,-0.095 0.358,-0.106C0.374,-0.117 0.387,-0.131 0.397,-0.146C0.403,-0.153 0.409,-0.16 0.416,-0.166C0.424,-0.171 0.434,-0.174 0.446,-0.174C0.461,-0.174 0.474,-0.169 0.484,-0.159C0.494,-0.149 0.498,-0.135 0.498,-0.118C0.498,-0.103 0.492,-0.088 0.482,-0.072C0.472,-0.057 0.458,-0.042 0.439,-0.029C0.421,-0.016 0.399,-0.005 0.373,0.003C0.347,0.011 0.319,0.015 0.287,0.015ZM0.16,-0.307L0.397,-0.307C0.392,-0.345 0.38,-0.374 0.359,-0.395C0.339,-0.416 0.312,-0.427 0.279,-0.426C0.247,-0.427 0.221,-0.417 0.2,-0.397C0.179,-0.378 0.165,-0.348 0.16,-0.307Z" style="fill:white;fill-rule:nonzero;"/>
                    </g>
                </g>
                <g>
                    <g transform="matrix(300,0,0,300,1129,2474.093736)">
                        <path d="M0.14,0.01C0.123,0.01 0.109,0.004 0.098,-0.007C0.086,-0.019 0.08,-0.033 0.08,-0.05L0.08,-0.64C0.08,-0.657 0.086,-0.671 0.098,-0.682C0.109,-0.694 0.123,-0.7 0.14,-0.7L0.199,-0.7L0.199,-0.05C0.199,-0.033 0.193,-0.019 0.182,-0.007C0.17,0.004 0.156,0.01 0.14,0.01ZM0.167,-0.272L0.167,-0.38L0.354,-0.38C0.375,-0.38 0.393,-0.384 0.408,-0.393C0.423,-0.402 0.435,-0.414 0.444,-0.43C0.452,-0.446 0.456,-0.464 0.457,-0.484C0.456,-0.506 0.452,-0.525 0.444,-0.541C0.435,-0.557 0.423,-0.569 0.407,-0.578C0.391,-0.587 0.372,-0.592 0.351,-0.592L0.167,-0.592L0.167,-0.7L0.358,-0.7C0.401,-0.7 0.438,-0.691 0.471,-0.672C0.504,-0.654 0.53,-0.629 0.549,-0.597C0.568,-0.565 0.578,-0.528 0.578,-0.486C0.578,-0.444 0.569,-0.406 0.55,-0.374C0.531,-0.342 0.506,-0.317 0.474,-0.299C0.443,-0.281 0.408,-0.272 0.369,-0.272L0.167,-0.272Z" style="fill:white;fill-rule:nonzero;"/>
                    </g>
                    <g transform="matrix(300,0,0,300,1294.15,2474.093736)">
                        <path d="M0.286,0.015C0.237,0.015 0.194,0.003 0.157,-0.02C0.12,-0.044 0.091,-0.076 0.071,-0.118C0.05,-0.159 0.04,-0.206 0.04,-0.259C0.04,-0.311 0.05,-0.358 0.071,-0.399C0.091,-0.439 0.12,-0.471 0.157,-0.495C0.194,-0.518 0.237,-0.53 0.286,-0.53C0.336,-0.53 0.379,-0.518 0.416,-0.495C0.453,-0.471 0.482,-0.439 0.503,-0.399C0.524,-0.358 0.534,-0.311 0.534,-0.259C0.534,-0.206 0.524,-0.159 0.503,-0.118C0.482,-0.076 0.453,-0.044 0.416,-0.02C0.379,0.003 0.336,0.015 0.286,0.015ZM0.286,-0.091C0.327,-0.091 0.359,-0.105 0.382,-0.135C0.404,-0.164 0.416,-0.205 0.416,-0.259C0.416,-0.311 0.404,-0.352 0.382,-0.381C0.359,-0.41 0.327,-0.424 0.286,-0.424C0.245,-0.424 0.214,-0.41 0.192,-0.381C0.169,-0.352 0.158,-0.311 0.158,-0.259C0.158,-0.205 0.169,-0.164 0.192,-0.135C0.214,-0.105 0.245,-0.091 0.286,-0.091Z" style="fill:white;fill-rule:nonzero;"/>
                    </g>
                    <g transform="matrix(300,0,0,300,1457.35,2474.093736)">
                        <path d="M0.282,0.015C0.234,0.015 0.191,0.003 0.155,-0.021C0.119,-0.045 0.09,-0.077 0.07,-0.119C0.05,-0.16 0.04,-0.206 0.04,-0.258C0.04,-0.31 0.05,-0.356 0.07,-0.397C0.09,-0.438 0.119,-0.47 0.155,-0.494C0.192,-0.518 0.235,-0.53 0.284,-0.53C0.32,-0.53 0.351,-0.524 0.378,-0.512C0.404,-0.5 0.425,-0.484 0.44,-0.466C0.455,-0.448 0.463,-0.429 0.464,-0.41C0.464,-0.392 0.46,-0.379 0.449,-0.37C0.438,-0.361 0.425,-0.356 0.411,-0.356C0.4,-0.356 0.391,-0.359 0.384,-0.363C0.377,-0.367 0.372,-0.372 0.367,-0.378C0.36,-0.389 0.35,-0.4 0.337,-0.41C0.324,-0.42 0.305,-0.425 0.281,-0.425C0.255,-0.425 0.233,-0.419 0.215,-0.405C0.197,-0.391 0.183,-0.372 0.173,-0.347C0.163,-0.322 0.158,-0.292 0.158,-0.258C0.158,-0.205 0.169,-0.164 0.192,-0.135C0.214,-0.106 0.245,-0.091 0.284,-0.091C0.313,-0.091 0.335,-0.098 0.35,-0.112C0.365,-0.126 0.376,-0.141 0.384,-0.159C0.39,-0.169 0.396,-0.178 0.403,-0.185C0.41,-0.192 0.419,-0.196 0.432,-0.196C0.448,-0.196 0.461,-0.19 0.472,-0.179C0.482,-0.168 0.487,-0.153 0.486,-0.136C0.486,-0.121 0.481,-0.105 0.471,-0.087C0.461,-0.07 0.448,-0.053 0.43,-0.037C0.412,-0.022 0.391,-0.009 0.366,0.001C0.341,0.01 0.313,0.015 0.282,0.015Z" style="fill:white;fill-rule:nonzero;"/>
                    </g>
                    <g transform="matrix(300,0,0,300,1604.65,2474.093736)">
                        <path d="M0.128,0.01C0.112,0.01 0.098,0.004 0.087,-0.007C0.076,-0.018 0.07,-0.032 0.07,-0.049L0.07,-0.672C0.07,-0.688 0.076,-0.702 0.087,-0.713C0.098,-0.724 0.112,-0.73 0.128,-0.73C0.144,-0.73 0.158,-0.724 0.169,-0.713C0.18,-0.702 0.185,-0.688 0.185,-0.672L0.185,-0.049C0.185,-0.032 0.18,-0.018 0.169,-0.007C0.158,0.004 0.144,0.01 0.128,0.01ZM0.143,-0.302L0.397,-0.509C0.407,-0.517 0.419,-0.521 0.434,-0.521C0.45,-0.521 0.464,-0.516 0.475,-0.505C0.486,-0.494 0.491,-0.481 0.491,-0.465C0.491,-0.446 0.484,-0.431 0.471,-0.42L0.143,-0.154L0.143,-0.302ZM0.451,0.01C0.441,0.01 0.432,0.008 0.424,0.003C0.415,-0.002 0.409,-0.008 0.404,-0.015L0.223,-0.277L0.312,-0.347L0.497,-0.081C0.504,-0.071 0.508,-0.06 0.508,-0.048C0.508,-0.032 0.502,-0.018 0.491,-0.007C0.48,0.004 0.466,0.01 0.451,0.01Z" style="fill:white;fill-rule:nonzero;"/>
                    </g>
                    <g transform="matrix(300,0,0,300,1752.55,2474.093736)">
                        <path d="M0.287,0.015C0.24,0.015 0.198,0.004 0.161,-0.017C0.124,-0.039 0.094,-0.07 0.072,-0.11C0.051,-0.15 0.04,-0.199 0.04,-0.255C0.04,-0.307 0.05,-0.354 0.07,-0.396C0.09,-0.437 0.117,-0.47 0.153,-0.494C0.189,-0.518 0.23,-0.53 0.278,-0.53C0.314,-0.53 0.347,-0.523 0.376,-0.51C0.405,-0.496 0.429,-0.478 0.449,-0.455C0.469,-0.433 0.485,-0.408 0.495,-0.381C0.506,-0.354 0.512,-0.327 0.512,-0.299C0.512,-0.276 0.506,-0.257 0.495,-0.243C0.484,-0.23 0.466,-0.223 0.44,-0.223L0.16,-0.223C0.164,-0.192 0.172,-0.166 0.185,-0.146C0.198,-0.127 0.213,-0.112 0.232,-0.103C0.251,-0.094 0.272,-0.089 0.294,-0.089C0.321,-0.089 0.342,-0.095 0.358,-0.106C0.374,-0.117 0.387,-0.131 0.397,-0.146C0.403,-0.153 0.409,-0.16 0.416,-0.166C0.424,-0.171 0.434,-0.174 0.446,-0.174C0.461,-0.174 0.474,-0.169 0.484,-0.159C0.494,-0.149 0.498,-0.135 0.498,-0.118C0.498,-0.103 0.492,-0.088 0.482,-0.072C0.472,-0.057 0.458,-0.042 0.439,-0.029C0.421,-0.016 0.399,-0.005 0.373,0.003C0.347,0.011 0.319,0.015 0.287,0.015ZM0.16,-0.307L0.397,-0.307C0.392,-0.345 0.38,-0.374 0.359,-0.395C0.339,-0.416 0.312,-0.427 0.279,-0.426C0.247,-0.427 0.221,-0.417 0.2,-0.397C0.179,-0.378 0.165,-0.348 0.16,-0.307Z" style="fill:white;fill-rule:nonzero;"/>
                    </g>
                    <g transform="matrix(300,0,0,300,1909,2474.093736)">
                        <path d="M0.239,0.01C0.21,0.01 0.185,0.004 0.165,-0.009C0.145,-0.021 0.13,-0.038 0.12,-0.06C0.109,-0.081 0.104,-0.105 0.104,-0.131L0.104,-0.568C0.104,-0.584 0.11,-0.597 0.121,-0.608C0.132,-0.619 0.145,-0.625 0.162,-0.625C0.177,-0.625 0.191,-0.619 0.202,-0.608C0.213,-0.597 0.219,-0.584 0.219,-0.568L0.219,-0.137C0.219,-0.127 0.221,-0.119 0.224,-0.113C0.227,-0.107 0.232,-0.103 0.24,-0.104C0.247,-0.103 0.253,-0.105 0.258,-0.109C0.263,-0.113 0.269,-0.116 0.275,-0.12C0.281,-0.123 0.288,-0.124 0.297,-0.124C0.313,-0.124 0.327,-0.119 0.338,-0.108C0.349,-0.097 0.354,-0.083 0.354,-0.067C0.354,-0.05 0.349,-0.036 0.337,-0.025C0.326,-0.013 0.311,-0.005 0.293,0.001C0.276,0.007 0.258,0.01 0.239,0.01ZM0.082,-0.414C0.068,-0.414 0.055,-0.418 0.045,-0.428C0.035,-0.438 0.03,-0.45 0.03,-0.465C0.03,-0.478 0.035,-0.49 0.045,-0.5C0.055,-0.51 0.068,-0.515 0.082,-0.515L0.313,-0.515C0.327,-0.515 0.34,-0.51 0.35,-0.5C0.36,-0.49 0.365,-0.478 0.365,-0.465C0.365,-0.45 0.36,-0.438 0.35,-0.428C0.34,-0.418 0.327,-0.414 0.313,-0.414L0.082,-0.414Z" style="fill:white;fill-rule:nonzero;"/>
                    </g>
                    <g transform="matrix(300,0,0,300,2095,2474.093736)">
                        <path d="M0.14,0.01C0.122,0.01 0.108,0.004 0.097,-0.007C0.086,-0.018 0.08,-0.033 0.08,-0.05L0.08,-0.64C0.08,-0.657 0.086,-0.671 0.097,-0.683C0.109,-0.694 0.123,-0.7 0.14,-0.7L0.199,-0.7L0.199,-0.05C0.199,-0.033 0.193,-0.018 0.182,-0.007C0.171,0.004 0.157,0.01 0.14,0.01ZM0.16,-0.592L0.16,-0.7L0.442,-0.7C0.458,-0.7 0.471,-0.695 0.481,-0.685C0.491,-0.675 0.496,-0.662 0.496,-0.646C0.496,-0.63 0.491,-0.617 0.481,-0.607C0.471,-0.597 0.458,-0.592 0.442,-0.592L0.16,-0.592ZM0.155,-0.296L0.155,-0.405L0.422,-0.405C0.438,-0.405 0.451,-0.4 0.462,-0.39C0.472,-0.379 0.477,-0.366 0.477,-0.351C0.477,-0.334 0.472,-0.321 0.462,-0.311C0.451,-0.301 0.438,-0.296 0.422,-0.296L0.155,-0.296Z" style="fill:white;fill-rule:nonzero;"/>
                    </g>
                    <g transform="matrix(300,0,0,300,2237.8,2474.093736)">
                        <path d="M0.286,0.015C0.237,0.015 0.194,0.003 0.157,-0.02C0.12,-0.044 0.091,-0.076 0.071,-0.118C0.05,-0.159 0.04,-0.206 0.04,-0.259C0.04,-0.311 0.05,-0.358 0.071,-0.399C0.091,-0.439 0.12,-0.471 0.157,-0.495C0.194,-0.518 0.237,-0.53 0.286,-0.53C0.336,-0.53 0.379,-0.518 0.416,-0.495C0.453,-0.471 0.482,-0.439 0.503,-0.399C0.524,-0.358 0.534,-0.311 0.534,-0.259C0.534,-0.206 0.524,-0.159 0.503,-0.118C0.482,-0.076 0.453,-0.044 0.416,-0.02C0.379,0.003 0.336,0.015 0.286,0.015ZM0.286,-0.091C0.327,-0.091 0.359,-0.105 0.382,-0.135C0.404,-0.164 0.416,-0.205 0.416,-0.259C0.416,-0.311 0.404,-0.352 0.382,-0.381C0.359,-0.41 0.327,-0.424 0.286,-0.424C0.245,-0.424 0.214,-0.41 0.192,-0.381C0.169,-0.352 0.158,-0.311 0.158,-0.259C0.158,-0.205 0.169,-0.164 0.192,-0.135C0.214,-0.105 0.245,-0.091 0.286,-0.091Z" style="fill:white;fill-rule:nonzero;"/>
                    </g>
                    <g transform="matrix(300,0,0,300,2401,2474.093736)">
                        <path d="M0.128,0.01C0.112,0.01 0.098,0.004 0.087,-0.007C0.076,-0.019 0.07,-0.033 0.07,-0.049L0.07,-0.467C0.07,-0.483 0.076,-0.497 0.087,-0.508C0.098,-0.519 0.112,-0.525 0.129,-0.525C0.146,-0.525 0.16,-0.519 0.17,-0.508C0.18,-0.496 0.185,-0.482 0.185,-0.467L0.185,-0.413L0.17,-0.427C0.176,-0.443 0.186,-0.458 0.199,-0.474C0.212,-0.49 0.227,-0.503 0.245,-0.514C0.263,-0.525 0.283,-0.53 0.306,-0.53C0.325,-0.53 0.34,-0.525 0.351,-0.514C0.363,-0.504 0.368,-0.49 0.368,-0.473C0.368,-0.457 0.363,-0.443 0.351,-0.432C0.339,-0.421 0.324,-0.415 0.306,-0.415C0.28,-0.415 0.258,-0.41 0.24,-0.4C0.222,-0.39 0.208,-0.377 0.199,-0.359C0.19,-0.343 0.185,-0.323 0.185,-0.302L0.185,-0.049C0.185,-0.033 0.18,-0.019 0.169,-0.007C0.157,0.004 0.143,0.01 0.128,0.01Z" style="fill:white;fill-rule:nonzero;"/>
                    </g>
                    <g transform="matrix(300,0,0,300,2499.55,2474.093736)">
                        <path d="M0.287,0.015C0.24,0.015 0.198,0.004 0.161,-0.017C0.124,-0.039 0.094,-0.07 0.072,-0.11C0.051,-0.15 0.04,-0.199 0.04,-0.255C0.04,-0.307 0.05,-0.354 0.07,-0.396C0.09,-0.437 0.117,-0.47 0.153,-0.494C0.189,-0.518 0.23,-0.53 0.278,-0.53C0.314,-0.53 0.347,-0.523 0.376,-0.51C0.405,-0.496 0.429,-0.478 0.449,-0.455C0.469,-0.433 0.485,-0.408 0.495,-0.381C0.506,-0.354 0.512,-0.327 0.512,-0.299C0.512,-0.276 0.506,-0.257 0.495,-0.243C0.484,-0.23 0.466,-0.223 0.44,-0.223L0.16,-0.223C0.164,-0.192 0.172,-0.166 0.185,-0.146C0.198,-0.127 0.213,-0.112 0.232,-0.103C0.251,-0.094 0.272,-0.089 0.294,-0.089C0.321,-0.089 0.342,-0.095 0.358,-0.106C0.374,-0.117 0.387,-0.131 0.397,-0.146C0.403,-0.153 0.409,-0.16 0.416,-0.166C0.424,-0.171 0.434,-0.174 0.446,-0.174C0.461,-0.174 0.474,-0.169 0.484,-0.159C0.494,-0.149 0.498,-0.135 0.498,-0.118C0.498,-0.103 0.492,-0.088 0.482,-0.072C0.472,-0.057 0.458,-0.042 0.439,-0.029C0.421,-0.016 0.399,-0.005 0.373,0.003C0.347,0.011 0.319,0.015 0.287,0.015ZM0.16,-0.307L0.397,-0.307C0.392,-0.345 0.38,-0.374 0.359,-0.395C0.339,-0.416 0.312,-0.427 0.279,-0.426C0.247,-0.427 0.221,-0.417 0.2,-0.397C0.179,-0.378 0.165,-0.348 0.16,-0.307Z" style="fill:white;fill-rule:nonzero;"/>
                    </g>
                    <g transform="matrix(300,0,0,300,2656,2474.093736)">
                        <path d="M0.254,0.018C0.209,0.018 0.171,0.011 0.139,-0.004C0.107,-0.019 0.083,-0.037 0.066,-0.058C0.049,-0.079 0.041,-0.099 0.04,-0.118C0.04,-0.132 0.044,-0.145 0.054,-0.156C0.063,-0.167 0.077,-0.173 0.094,-0.173C0.107,-0.173 0.118,-0.17 0.127,-0.164C0.135,-0.158 0.141,-0.152 0.144,-0.146C0.158,-0.126 0.174,-0.111 0.193,-0.099C0.212,-0.087 0.234,-0.082 0.261,-0.082C0.287,-0.082 0.307,-0.087 0.32,-0.098C0.333,-0.108 0.339,-0.122 0.339,-0.138C0.339,-0.151 0.335,-0.162 0.326,-0.171C0.317,-0.18 0.304,-0.188 0.288,-0.194C0.272,-0.201 0.252,-0.207 0.23,-0.214C0.209,-0.221 0.188,-0.228 0.167,-0.236C0.147,-0.243 0.128,-0.253 0.112,-0.265C0.095,-0.276 0.082,-0.291 0.072,-0.308C0.062,-0.325 0.057,-0.347 0.057,-0.372C0.057,-0.402 0.065,-0.429 0.081,-0.453C0.097,-0.477 0.119,-0.496 0.148,-0.51C0.177,-0.524 0.21,-0.531 0.248,-0.531C0.286,-0.531 0.319,-0.525 0.346,-0.512C0.374,-0.5 0.395,-0.484 0.411,-0.465C0.426,-0.446 0.434,-0.427 0.434,-0.407C0.434,-0.392 0.431,-0.38 0.423,-0.37C0.415,-0.36 0.403,-0.355 0.387,-0.355C0.375,-0.355 0.364,-0.358 0.354,-0.364C0.345,-0.37 0.338,-0.377 0.332,-0.384C0.327,-0.391 0.321,-0.398 0.315,-0.406C0.308,-0.413 0.299,-0.42 0.288,-0.425C0.277,-0.43 0.263,-0.432 0.245,-0.432C0.221,-0.432 0.203,-0.428 0.19,-0.418C0.177,-0.408 0.171,-0.395 0.171,-0.38C0.171,-0.366 0.176,-0.355 0.186,-0.347C0.196,-0.339 0.21,-0.331 0.228,-0.325C0.247,-0.319 0.269,-0.311 0.295,-0.302C0.318,-0.295 0.339,-0.287 0.358,-0.278C0.377,-0.269 0.394,-0.259 0.409,-0.247C0.423,-0.236 0.434,-0.222 0.442,-0.206C0.45,-0.19 0.454,-0.171 0.454,-0.149C0.454,-0.12 0.447,-0.092 0.432,-0.067C0.417,-0.041 0.395,-0.02 0.365,-0.005C0.335,0.01 0.298,0.018 0.254,0.018Z" style="fill:white;fill-rule:nonzero;"/>
                    </g>
                    <g transform="matrix(300,0,0,300,2793.7,2474.093736)">
                        <path d="M0.239,0.01C0.21,0.01 0.185,0.004 0.165,-0.009C0.145,-0.021 0.13,-0.038 0.12,-0.06C0.109,-0.081 0.104,-0.105 0.104,-0.131L0.104,-0.568C0.104,-0.584 0.11,-0.597 0.121,-0.608C0.132,-0.619 0.145,-0.625 0.162,-0.625C0.177,-0.625 0.191,-0.619 0.202,-0.608C0.213,-0.597 0.219,-0.584 0.219,-0.568L0.219,-0.137C0.219,-0.127 0.221,-0.119 0.224,-0.113C0.227,-0.107 0.232,-0.103 0.24,-0.104C0.247,-0.103 0.253,-0.105 0.258,-0.109C0.263,-0.113 0.269,-0.116 0.275,-0.12C0.281,-0.123 0.288,-0.124 0.297,-0.124C0.313,-0.124 0.327,-0.119 0.338,-0.108C0.349,-0.097 0.354,-0.083 0.354,-0.067C0.354,-0.05 0.349,-0.036 0.337,-0.025C0.326,-0.013 0.311,-0.005 0.293,0.001C0.276,0.007 0.258,0.01 0.239,0.01ZM0.082,-0.414C0.068,-0.414 0.055,-0.418 0.045,-0.428C0.035,-0.438 0.03,-0.45 0.03,-0.465C0.03,-0.478 0.035,-0.49 0.045,-0.5C0.055,-0.51 0.068,-0.515 0.082,-0.515L0.313,-0.515C0.327,-0.515 0.34,-0.51 0.35,-0.5C0.36,-0.49 0.365,-0.478 0.365,-0.465C0.365,-0.45 0.36,-0.438 0.35,-0.428C0.34,-0.418 0.327,-0.414 0.313,-0.414L0.082,-0.414Z" style="fill:white;fill-rule:nonzero;"/>
                    </g>
                </g>
            </g>
        </g>
    </g>
</svg>
